<svg xmlns="http://www.w3.org/2000/svg" xmlns:xlink="http://www.w3.org/1999/xlink" width="667px" height="150px" viewBox="0 0 667.0105853485757 150.0863980455424">
    <g style="" id="ee411d55-a41f-467d-b234-789acdcf4b2a">
<g style=""><path d="M-477.44975 -26.49551C-480.33940 -26.49551 -485.33062 -93.48295 -506.08360 -97.68609L-506.08360 69.91388C-506.08360 75.95588 -501.35507 80.94711 -495.31307 80.94711L-495.31307 82.52328L-541.02215 82.52328L-541.02215 80.94711C-534.98014 80.94711 -530.25162 75.95588 -530.25162 69.91388L-530.25162 -97.68609C-551.00459 -93.48295 -555.99581 -26.49551 -558.88547 -26.49551L-558.09738 -101.36383L-478.23784 -101.36383L-477.44975 -26.49551Z" fill="rgb(2,17,38)" fill-opacity="1.00" transform="matrix(0.505603 0 0 0.505603 333.505293 75.043199) translate(0 0)"></path><path d="M-372.63410 82.52328L-419.39396 82.52328L-419.39396 80.94711C-417.02970 80.94711 -414.66543 79.63363 -413.08926 77.53206C-411.77578 75.69319 -411.25039 73.06623 -412.03848 70.70197L-445.13816 -27.02090C-445.40085 -27.28359 -445.66355 -27.80899 -445.66355 -28.07168L-445.66355 69.91388C-445.66355 75.95588 -440.93502 80.94711 -434.89302 80.94711L-434.89302 82.52328L-480.60210 82.52328L-480.60210 80.94711C-474.56009 80.94711 -469.83157 75.95588 -469.83157 69.91388L-469.83157 -88.75443C-469.83157 -94.79643 -474.56009 -99.78765 -480.60210 -99.78765L-480.60210 -101.36383L-431.47797 -101.36383C-401.79334 -101.36383 -389.70933 -82.97512 -389.70933 -63.27293C-389.70933 -34.90177 -403.10682 -21.50428 -419.91935 -18.87733C-416.24161 -14.67419 -413.87735 -9.68297 -411.77578 -3.64096L-386.81967 70.70197C-384.71811 76.74397 -378.93880 80.94711 -372.63410 80.94711ZM-445.66355 -43.04535C-445.66355 -19.92811 -413.61465 -18.61463 -413.61465 -63.27293C-413.61465 -81.13625 -418.86857 -97.68609 -434.89302 -97.68609L-445.66355 -97.68609L-445.66355 -43.04535Z" fill="rgb(2,17,38)" fill-opacity="1.00" transform="matrix(0.505603 0 0 0.505603 333.505293 75.043199) translate(0 0)"></path><path d="M-290.67298 82.52328L-325.34884 82.52328L-325.34884 80.94711C-322.72188 80.94711 -320.09492 79.63363 -318.51875 77.53206C-316.67987 75.69319 -316.15448 72.80353 -316.41718 70.17658L-326.13693 16.58662L-363.70244 16.58662C-367.64287 39.44116 -366.06670 62.82109 -354.24538 82.52328L-381.56575 82.52328L-350.56764 -90.59330C-350.04225 -92.95756 -350.56764 -95.05913 -352.14382 -96.89800C-353.45730 -98.47417 -355.55886 -99.52496 -357.66043 -99.78765L-357.92313 -99.78765L-357.92313 -101.36383L-322.98458 -101.36383ZM-345.05103 -87.17825L-362.91435 11.59540L-326.92501 11.59540Z" fill="rgb(2,17,38)" fill-opacity="1.00" transform="matrix(0.505603 0 0 0.505603 333.505293 75.043199) translate(0 0)"></path><path d="M-209.23726 4.50261C-206.08491 14.22235 -197.67864 82.78598 -237.60842 85.67563L-238.65920 88.82798C-234.45607 89.61607 -231.04102 92.50572 -231.04102 96.97155C-231.04102 103.27626 -236.55763 105.90321 -242.33694 105.90321C-244.96390 105.90321 -247.59086 105.11513 -249.95512 104.06434L-248.37895 99.07312C-246.54008 100.12390 -244.43851 100.38660 -242.33694 100.38660C-239.70998 100.38660 -237.60842 99.59851 -237.60842 97.23425C-237.60842 94.34460 -241.02346 93.03112 -246.27738 92.50572L-244.17581 85.41294C-277.27549 82.26059 -293.82533 39.44116 -293.82533 -9.42027C-293.82533 -60.12058 -274.64853 -101.36383 -243.12503 -101.36383L-212.91500 -101.36383L-212.12692 -26.49551C-215.27927 -26.49551 -220.27049 -97.68609 -243.12503 -97.68609C-256.52252 -97.68609 -267.55575 -58.28171 -267.55575 -9.42027C-267.55575 39.44116 -257.57330 70.96466 -239.18459 70.96466C-210.81344 70.96466 -209.23726 4.50261 -209.23726 4.50261Z" fill="rgb(2,17,38)" fill-opacity="1.00" transform="matrix(0.505603 0 0 0.505603 333.505293 75.043199) translate(0 0)"></path><path d="M-154.85922 -101.36383C-123.33571 -101.36383 -103.89622 -60.12058 -103.89622 -9.42027C-103.89622 41.28003 -123.33571 82.52328 -154.85922 82.52328C-186.38272 82.52328 -205.55952 41.28003 -205.55952 -9.42027C-205.55952 -60.12058 -186.38272 -101.36383 -154.85922 -101.36383ZM-154.85922 78.84554C-141.19903 78.84554 -130.16580 39.44116 -130.16580 -9.42027C-130.16580 -58.28171 -141.19903 -97.68609 -154.85922 -97.68609C-168.25671 -97.68609 -179.28993 -58.28171 -179.28993 -9.42027C-179.28993 39.44116 -168.25671 78.84554 -154.85922 78.84554Z" fill="rgb(2,17,38)" fill-opacity="1.00" transform="matrix(0.505603 0 0 0.505603 333.505293 75.043199) translate(0 0)"></path><path d="M-16.68119 69.91388C-16.68119 75.95588 -11.68997 80.94711 -5.64796 80.94711L-5.64796 82.52328L-37.95955 82.52328L-37.95955 64.92266C-42.95078 79.10824 -55.29748 85.67563 -66.59340 85.67563C-94.43917 85.67563 -103.37083 50.99978 -103.37083 16.58662C-103.37083 -18.08924 -94.43917 -52.76509 -66.59340 -52.76509C-55.29748 -52.76509 -42.95078 -46.19770 -37.95955 -32.01212L-37.95955 -88.75443C-37.95955 -94.79643 -42.95078 -99.78765 -48.73008 -99.78765L-48.73008 -101.36383L-16.68119 -101.36383L-16.68119 69.91388ZM-37.95955 -18.08924C-37.95955 -33.58829 -47.15391 -40.94378 -55.56018 -40.94378C-74.73698 -40.94378 -79.20281 -12.30993 -79.20281 16.58662C-79.20281 45.22047 -74.73698 73.85432 -55.56018 73.85432C-47.15391 73.85432 -37.95955 66.49883 -37.95955 50.99978L-37.95955 -18.08924Z" fill="rgb(2,17,38)" fill-opacity="1.00" transform="matrix(0.505603 0 0 0.505603 333.505293 75.043199) translate(0 0)"></path><path d="M16.41849 -5.47984C14.57962 28.14524 22.72319 69.38849 42.95078 69.38849C63.96644 69.38849 68.43227 27.09445 68.43227 27.09445C72.63541 39.70385 71.84732 85.67563 34.01912 85.67563C4.07179 85.67563 -7.74953 54.67752 -7.74953 16.32392C-7.74953 -21.76698 4.07179 -52.76509 34.01912 -52.76509C57.92444 -52.76509 70.27115 -33.06290 74.21158 -5.47984L16.41849 -5.47984ZM34.01912 -47.77387C24.56206 -47.77387 18.78275 -31.22403 16.94388 -10.47106L50.56896 -10.47106C48.73008 -32.53751 43.73886 -47.77387 34.01912 -47.77387Z" fill="rgb(2,17,38)" fill-opacity="1.00" transform="matrix(0.505603 0 0 0.505603 333.505293 75.043199) translate(0 0)"></path><path d="M120.97145 -101.36383C153.02035 -101.36383 162.74009 -76.40772 162.74009 -56.70553C162.74009 -20.97889 143.56329 -5.47984 127.01345 -5.47984C117.81910 -5.47984 110.72631 -9.15758 106.78587 -15.72497L106.78587 69.91388C106.78587 75.95588 111.51440 80.94711 117.55640 80.94711L117.55640 82.52328L71.84732 82.52328L71.84732 80.94711C77.88933 80.94711 82.61785 75.95588 82.61785 69.91388L82.61785 -88.75443C82.61785 -94.79643 77.88933 -99.78765 71.84732 -99.78765L71.84732 -101.36383L120.97145 -101.36383ZM106.78587 -30.17325C106.78587 -7.84410 138.83477 -7.84410 138.83477 -56.70553C138.83477 -74.56885 133.58085 -97.68609 117.55640 -97.68609L106.78587 -97.68609L106.78587 -30.17325Z" fill="rgb(2,17,38)" fill-opacity="1.00" transform="matrix(0.505603 0 0 0.505603 333.505293 75.043199) translate(0 0)"></path><path d="M207.39839 78.84554C229.99024 78.84554 234.98146 7.65496 238.13381 7.65496L237.34572 82.52328L157.74887 82.52328L157.74887 80.94711C163.79088 80.94711 168.51940 75.95588 168.51940 69.91388L168.51940 -88.75443C168.51940 -94.79643 163.79088 -99.78765 157.74887 -99.78765L157.74887 -101.36383L234.71876 -101.36383L235.50685 -26.49551C232.35450 -26.49551 227.36328 -97.68609 204.77143 -97.68609L192.68742 -97.68609L192.68742 -44.35883L220.27049 -44.35883L222.63475 8.70574C219.21971 8.70574 217.90623 -40.68108 192.68742 -40.68108L192.68742 78.84554L207.39839 78.84554Z" fill="rgb(2,17,38)" fill-opacity="1.00" transform="matrix(0.505603 0 0 0.505603 333.505293 75.043199) translate(0 0)"></path><path d="M381.04036 -99.78765C375.26105 -99.78765 370.26983 -94.79643 370.26983 -88.75443L370.26983 69.91388C370.26983 75.95588 375.26105 80.94711 381.04036 80.94711L381.04036 82.52328L335.33128 82.52328L335.33128 80.94711C341.37329 80.94711 346.36451 75.95588 346.36451 69.91388L346.36451 -70.62841L321.93379 22.89132C316.94257 42.59351 316.94257 63.08379 321.93379 82.52328L296.71499 82.52328L256.78522 -70.62841L256.78522 16.06123C256.78522 38.91577 262.56452 62.55840 278.06358 82.52328L249.42973 82.52328L249.42973 -88.75443C249.42973 -94.79643 244.70121 -99.78765 238.65920 -99.78765L238.65920 -101.36383L285.68176 -101.36383L285.68176 -99.78765C283.05480 -99.78765 280.69054 -98.47417 278.85167 -96.37261C277.27549 -94.53374 276.75010 -91.64408 277.53819 -89.27982L310.63787 38.91577L343.47485 -89.27982C344.26294 -91.64408 343.73755 -94.53374 342.16137 -96.37261C340.58520 -98.47417 337.95824 -99.78765 335.33128 -99.78765L335.33128 -101.36383L381.04036 -101.36383L381.04036 -99.78765Z" fill="rgb(2,17,38)" fill-opacity="1.00" transform="matrix(0.505603 0 0 0.505603 333.505293 75.043199) translate(0 0)"></path><path d="M436.73189 -18.61463C453.80712 -7.84410 473.77201 6.86687 473.77201 37.07690C473.77201 65.18535 460.89991 82.52328 424.38518 82.52328L377.88801 82.52328L377.88801 80.94711C383.93002 80.94711 388.65854 75.95588 388.65854 69.91388L388.65854 -88.75443C388.65854 -94.79643 383.93002 -99.78765 377.88801 -99.78765L377.88801 -101.36383L424.38518 -101.36383C454.06982 -101.36383 463.78956 -82.97512 463.78956 -63.27293C463.78956 -34.63908 450.39207 -21.24159 436.73189 -18.61463ZM412.82656 -43.04535C412.82656 -19.92811 439.88424 -18.61463 439.88424 -63.27293C439.88424 -81.13625 436.99458 -97.68609 420.97014 -97.68609L412.82656 -97.68609L412.82656 -43.04535ZM420.97014 78.84554C441.72311 78.84554 449.34129 57.82987 449.34129 38.91577C449.34129 8.44305 415.71622 -24.13124 415.71622 -24.13124C414.40274 -25.44472 413.61465 -26.75820 412.82656 -28.07168L412.82656 78.84554L420.97014 78.84554Z" fill="rgb(2,17,38)" fill-opacity="1.00" transform="matrix(0.505603 0 0 0.505603 333.505293 75.043199) translate(0 0)"></path><path d="M560.19895 82.52328L525.52309 82.52328L525.52309 80.94711C528.15005 80.94711 530.77701 79.63363 532.35319 77.53206C534.19206 75.69319 534.71745 72.80353 534.45475 70.17658L524.73501 16.58662L487.16950 16.58662C483.22906 39.44116 484.80523 62.82109 496.62655 82.52328L469.30618 82.52328L500.30429 -90.59330C500.82968 -92.95756 500.30429 -95.05913 498.72811 -96.89800C497.41463 -98.47417 495.31307 -99.52496 493.21150 -99.78765L492.94880 -99.78765L492.94880 -101.36383L527.88736 -101.36383ZM505.82090 -87.17825L487.95758 11.59540L523.94692 11.59540Z" fill="rgb(2,17,38)" fill-opacity="1.00" transform="matrix(0.505603 0 0 0.505603 333.505293 75.043199) translate(0 0)"></path></g></g>

  </svg>